<svg width="31" height="29" viewBox="0 0 31 29" fill="none" xmlns="http://www.w3.org/2000/svg">
<path d="M28.7857 14C27.0327 11.2685 24.8358 9.22569 22.1948 7.87153C22.8983 9.07523 23.25 10.3773 23.25 11.7778C23.25 13.919 22.4917 15.7506 20.9752 17.2726C19.4586 18.7946 17.6336 19.5556 15.5 19.5556C13.3664 19.5556 11.5414 18.7946 10.0248 17.2726C8.50828 15.7506 7.75 13.919 7.75 11.7778C7.75 10.3773 8.10175 9.07523 8.80525 7.87153C6.16425 9.22569 3.96726 11.2685 2.21429 14C3.74814 16.3727 5.67122 18.2622 7.98354 19.6684C10.2959 21.0747 12.8013 21.7778 15.5 21.7778C18.1987 21.7778 20.7041 21.0747 23.0165 19.6684C25.3288 18.2622 27.2519 16.3727 28.7857 14ZM16.3304 7.33333C16.3304 7.10185 16.2496 6.90509 16.0882 6.74306C15.9267 6.58102 15.7307 6.5 15.5 6.5C14.0584 6.5 12.8215 7.01794 11.7893 8.05382C10.7572 9.0897 10.2411 10.331 10.2411 11.7778C10.2411 12.0093 10.3218 12.206 10.4833 12.3681C10.6447 12.5301 10.8408 12.6111 11.0714 12.6111C11.3021 12.6111 11.4981 12.5301 11.6596 12.3681C11.8211 12.206 11.9018 12.0093 11.9018 11.7778C11.9018 10.7824 12.2535 9.93171 12.957 9.22569C13.6605 8.51968 14.5082 8.16667 15.5 8.16667C15.7307 8.16667 15.9267 8.08565 16.0882 7.92361C16.2496 7.76157 16.3304 7.56482 16.3304 7.33333ZM31 14C31 14.3935 30.8847 14.7928 30.654 15.1979C29.0394 17.86 26.8684 19.9925 24.1409 21.5955C21.4134 23.1985 18.5331 24 15.5 24C12.4669 24 9.58659 23.1956 6.8591 21.5868C4.1316 19.978 1.96057 17.8484 0.345982 15.1979C0.115327 14.7928 0 14.3935 0 14C0 13.6065 0.115327 13.2072 0.345982 12.8021C1.96057 10.1516 4.1316 8.02199 6.8591 6.41319C9.58659 4.8044 12.4669 4 15.5 4C18.5331 4 21.4134 4.8044 24.1409 6.41319C26.8684 8.02199 29.0394 10.1516 30.654 12.8021C30.8847 13.2072 31 13.6065 31 14Z" fill="#798BC9"/>
<rect x="22.2742" width="4" height="32" rx="2" transform="rotate(35.0645 22.2742 0)" fill="#798BC9"/>
</svg>
