<svg width="31" height="21" viewBox="0 0 31 21" fill="none" xmlns="http://www.w3.org/2000/svg">
<path d="M28.6478 10.6026C26.9123 7.89847 24.7373 5.87607 22.1227 4.53545C22.8192 5.72712 23.1674 7.01618 23.1674 8.40264C23.1674 10.5224 22.4167 12.3357 20.9153 13.8425C19.4139 15.3492 17.6071 16.1026 15.4949 16.1026C13.3827 16.1026 11.5759 15.3492 10.0745 13.8425C8.5731 12.3357 7.8224 10.5224 7.8224 8.40264C7.8224 7.01618 8.17063 5.72712 8.86709 4.53545C6.25251 5.87607 4.07749 7.89847 2.34205 10.6026C3.86056 12.9516 5.76441 14.8222 8.0536 16.2144C10.3428 17.6065 12.8232 18.3026 15.4949 18.3026C18.1666 18.3026 20.647 17.6065 22.9362 16.2144C25.2254 14.8222 27.1292 12.9516 28.6478 10.6026ZM16.317 4.00264C16.317 3.77347 16.237 3.57868 16.0772 3.41826C15.9173 3.25784 15.7232 3.17764 15.4949 3.17764C14.0677 3.17764 12.8432 3.6904 11.8214 4.71592C10.7995 5.74144 10.2886 6.97034 10.2886 8.40264C10.2886 8.6318 10.3685 8.82659 10.5283 8.98701C10.6882 9.14743 10.8823 9.22764 11.1106 9.22764C11.339 9.22764 11.5331 9.14743 11.6929 8.98701C11.8527 8.82659 11.9327 8.6318 11.9327 8.40264C11.9327 7.41722 12.2809 6.57503 12.9774 5.87607C13.6738 5.17712 14.513 4.82764 15.4949 4.82764C15.7232 4.82764 15.9173 4.74743 16.0772 4.58701C16.237 4.42659 16.317 4.2318 16.317 4.00264ZM30.8399 10.6026C30.8399 10.9922 30.7257 11.3875 30.4974 11.7886C28.8989 14.424 26.7496 16.5352 24.0494 18.1222C21.3492 19.7091 18.4977 20.5026 15.4949 20.5026C12.4921 20.5026 9.64062 19.7063 6.94041 18.1136C4.24019 16.5209 2.09086 14.4125 0.492425 11.7886C0.264076 11.3875 0.149902 10.9922 0.149902 10.6026C0.149902 10.2131 0.264076 9.81774 0.492425 9.4167C2.09086 6.79274 4.24019 4.68441 6.94041 3.0917C9.64062 1.49899 12.4921 0.702637 15.4949 0.702637C18.4977 0.702637 21.3492 1.49899 24.0494 3.0917C26.7496 4.68441 28.8989 6.79274 30.4974 9.4167C30.7257 9.81774 30.8399 10.2131 30.8399 10.6026Z" fill="#798BC9"/>
</svg>
